<svg xmlns="http://www.w3.org/2000/svg" width="1000mm" height="1000mm" viewBox="0 0 1000 1000">
  <g stroke-width=".207">
    <path fill="#5e81ac" d="M37.626 139.68h924.74c12.538 0 21.943 10.188 21.943 21.943v676.31c0 12.539-10.188 21.943-21.943 21.943H37.626c-11.755.784-21.943-9.404-21.943-21.159v-677.09c0-11.755 10.188-21.943 21.943-21.943z"/>
    <path fill="#131313" d="M962.36 876.33H37.62c-20.377 0-37.618-17.241-37.618-37.617v-677.09c.001-20.375 17.243-37.617 37.618-37.617h924.74c21.159 0 37.617 17.241 37.617 37.617v676.31c.784 21.159-16.458 38.4-37.616 38.4zM37.62 155.35c-3.135 0-6.27 3.135-6.27 6.27v676.31c0 3.917 3.135 7.052 6.269 7.052h924.74c3.919 0 6.27-3.134 6.27-6.269v-677.09c0-3.918-3.135-6.27-6.27-6.27H37.619z"/>
    <path fill="#d8dee9" d="M72.891 200.02h851.86V801.1H72.891z"/>
    <path fill="#131313" d="M924.74 815.99H72.88c-8.62 0-15.675-7.053-15.675-15.674v-600.3c0-8.62 7.053-15.674 15.674-15.674h851.86c8.62 0 15.674 7.053 15.674 15.674v601.08c0 7.837-7.053 14.89-15.674 14.89zM88.56 784.644h820.51v-568.95H88.56z"/>
  </g>
  <path fill="#81a1c1" stroke="#000" stroke-width="13" d="M862.06 689.81h-158.3c-8.62 0-15.674-7.053-15.674-15.674s7.053-15.674 15.674-15.674h158.3c8.62 0 15.674 7.053 15.674 15.674s-7.053 15.674-15.674 15.674zm-99.522 67.396h-58.776c-8.62 0-15.674-7.053-15.674-15.674s7.053-15.674 15.674-15.674h58.776c8.62 0 15.674 7.053 15.674 15.674s-7.053 15.674-15.674 15.674z"/>
  <g stroke="#000" stroke-width="13.219">
    <g fill="#a3be8c">
      <path stroke-width="12.999828979999998" d="M463.938 655.332c-3.919 0-7.838-1.568-10.97-4.702L242.16 440.601c-6.27-6.27-6.27-15.673 0-21.943s15.673-6.27 21.942 0l210.03 210.03c6.27 6.269 6.27 15.673 0 21.942-2.35 3.918-6.27 4.702-10.189 4.702zm34.482-2.35c-2.351 0-5.487-.785-7.838-2.352-7.836-3.919-10.188-14.106-6.27-21.159l158.302-280.56c3.919-7.838 14.106-10.188 21.16-6.27 7.837 3.919 10.187 14.106 6.27 21.16L512.528 645.136c-3.135 4.703-8.62 7.838-14.106 7.838z"/>
      <path stroke-width="12.999828979999998" d="M668.48 372.422c-24.296 0-44.671-19.592-44.671-44.67s19.592-44.67 44.67-44.67c25.077 0 44.67 20.375 44.67 44.67s-19.592 44.67-44.67 44.67zm0-57.209c-7.054 0-13.324 5.486-13.324 13.323s5.487 13.322 13.323 13.322c7.838 0 13.322-6.27 13.322-14.106s-5.485-12.539-13.322-12.539zM482.75 705.483c-24.294 0-44.67-19.591-44.67-44.67 0-25.077 19.592-44.67 44.67-44.67 24.295 0 44.67 19.592 44.67 44.67s-19.593 44.67-44.67 44.67zm0-57.208c-7.053 0-13.322 5.485-13.322 13.322s5.485 13.323 13.321 13.323c7.053 0 13.323-5.486 13.323-13.323s-5.486-13.322-13.322-13.322zM231.98 454.708c-24.295 0-44.67-19.591-44.67-44.67 0-24.294 19.59-44.67 44.67-44.67 24.293 0 44.669 19.592 44.669 44.67s-19.592 44.67-44.67 44.67zm0-57.208c-7.054 0-13.323 5.485-13.323 13.322 0 7.053 5.486 13.323 13.322 13.323 7.053 0 13.322-5.486 13.322-13.323s-5.485-13.322-13.322-13.322z"/>
    </g>
    <g fill="#ebcb8b">
      <path stroke-width="12.999828979999998" d="M278.996 683.546c-3.919 0-7.837-1.567-10.97-4.701-6.27-6.27-6.27-16.458 0-21.943l199.053-194.354c6.27-6.27 16.458-6.27 21.943 0 6.27 6.27 6.27 16.458 0 21.943L289.968 678.845c-3.135 3.134-7.053 4.701-10.97 4.701zm456.1-213.943H527.419c-8.62 0-15.674-7.053-15.674-15.673s7.053-15.674 15.674-15.674H734.31c8.62 0 15.674 7.053 15.674 15.674s-6.27 15.673-14.89 15.673z"/>
      <path stroke-width="12.999828979999998" d="M762.524 497.818c-24.295 0-44.67-19.592-44.67-44.67 0-24.295 19.591-44.67 44.67-44.67 25.077 0 44.67 19.592 44.67 44.67s-19.592 44.67-44.67 44.67zm0-57.209c-7.054 0-13.323 5.486-13.323 13.323 0 7.053 5.486 13.322 13.322 13.322 7.838 0 13.323-6.27 13.323-13.322 0-7.837-6.27-13.323-13.323-13.323zm-263.32 57.209c-24.295 0-44.67-19.592-44.67-44.67 0-24.295 19.592-44.67 44.67-44.67s44.67 19.592 44.67 44.67c-.784 25.077-20.377 44.67-44.67 44.67zm0-57.209c-7.053 0-13.323 5.486-13.323 13.323 0 7.053 5.486 13.322 13.323 13.322s13.322-5.486 13.322-13.322c-.784-7.837-6.27-13.323-13.322-13.323zM260.97 734.485c-24.294 0-44.67-19.592-44.67-44.67 0-24.295 19.592-44.67 44.67-44.67s44.67 19.591 44.67 44.67c0 24.294-20.376 44.67-44.67 44.67zm0-57.209c-7.053 0-13.322 5.486-13.322 13.322s5.485 13.323 13.322 13.323 13.323-5.486 13.323-13.323-6.27-13.322-13.323-13.322z"/>
    </g>
  </g>
</svg>
