<svg height="1000" width="1000" version="1.1" id="_x32_" viewBox="0 0 640 640" xml:space="preserve" xmlns="http://www.w3.org/2000/svg"><defs id="defs25"><marker style="overflow:visible" id="marker14077" refX="0" refY="0" orient="auto"><path transform="rotate(180 -.6 0)scale(.2)" style="fill-rule:evenodd;fill:context-stroke;stroke:context-stroke;stroke-width:1pt" d="m0 0 5-5-17.5 5L5 5z" id="path14075"/></marker><marker style="overflow:visible" id="marker14067" refX="0" refY="0" orient="auto"><path transform="matrix(-.4 0 0 -.4 -4 0)" style="fill-rule:evenodd;fill:context-stroke;stroke:context-stroke;stroke-width:1pt" d="m0 0 5-5-17.5 5L5 5z" id="path14065"/></marker><marker style="overflow:visible" id="Arrow1Lend" refX="0" refY="0" orient="auto"><path transform="rotate(180 -5 0)scale(.8)" style="fill-rule:evenodd;fill:context-stroke;stroke:context-stroke;stroke-width:1pt" d="m0 0 5-5-17.5 5L5 5z" id="path13450"/></marker><marker style="overflow:visible" id="marker14055" refX="0" refY="0" orient="auto"><path transform="matrix(-.4 0 0 -.4 -4 0)" style="fill-rule:evenodd;fill:context-stroke;stroke:context-stroke;stroke-width:1pt" d="m0 0 5-5-17.5 5L5 5z" id="path14053"/></marker><marker style="overflow:visible" id="marker14045" refX="0" refY="0" orient="auto"><path transform="matrix(-.4 0 0 -.4 -4 0)" style="fill-rule:evenodd;fill:context-stroke;stroke:context-stroke;stroke-width:1pt" d="m0 0 5-5-17.5 5L5 5z" id="path14043"/></marker><marker style="overflow:visible" id="marker14035" refX="0" refY="0" orient="auto"><path transform="rotate(180)scale(.6)" d="M8.719 4.034-2.207.016 8.719-4.002c-1.746 2.372-1.736 5.618 0 8.036z" style="stroke:context-stroke;fill-rule:evenodd;fill:context-stroke;stroke-width:.625;stroke-linejoin:round" id="path14033"/></marker><marker style="overflow:visible" id="marker14025" refX="0" refY="0" orient="auto"><path transform="matrix(-.3 0 0 -.3 .69 0)" d="M8.719 4.034-2.207.016 8.719-4.002c-1.746 2.372-1.736 5.618 0 8.036z" style="stroke:context-stroke;fill-rule:evenodd;fill:context-stroke;stroke-width:.625;stroke-linejoin:round" id="path14023"/></marker><marker style="overflow:visible" id="marker14015" refX="0" refY="0" orient="auto"><path transform="rotate(180)scale(.6)" d="M8.719 4.034-2.207.016 8.719-4.002c-1.746 2.372-1.736 5.618 0 8.036z" style="stroke:context-stroke;fill-rule:evenodd;fill:context-stroke;stroke-width:.625;stroke-linejoin:round" id="path14013"/></marker><marker style="overflow:visible" id="marker14005" refX="0" refY="0" orient="auto"><path transform="rotate(180 -.6 0)scale(.2)" style="fill-rule:evenodd;fill:context-stroke;stroke:context-stroke;stroke-width:1pt" d="m0 0 5-5-17.5 5L5 5z" id="path14003"/></marker><marker style="overflow:visible" id="marker13995" refX="0" refY="0" orient="auto"><path transform="matrix(-.3 0 0 -.3 .69 0)" d="M8.719 4.034-2.207.016 8.719-4.002c-1.746 2.372-1.736 5.618 0 8.036z" style="stroke:context-stroke;fill-rule:evenodd;fill:context-stroke;stroke-width:.625;stroke-linejoin:round" id="path13993"/></marker><marker style="overflow:visible" id="marker13985" refX="0" refY="0" orient="auto"><path transform="rotate(180)scale(.6)" d="M8.719 4.034-2.207.016 8.719-4.002c-1.746 2.372-1.736 5.618 0 8.036z" style="stroke:context-stroke;fill-rule:evenodd;fill:context-stroke;stroke-width:.625;stroke-linejoin:round" id="path13983"/></marker><marker style="overflow:visible" id="Arrow2Mend" refX="0" refY="0" orient="auto"><path transform="rotate(180)scale(.6)" d="M8.719 4.034-2.207.016 8.719-4.002c-1.746 2.372-1.736 5.618 0 8.036z" style="stroke:context-stroke;fill-rule:evenodd;fill:context-stroke;stroke-width:.625;stroke-linejoin:round" id="path13474"/></marker><marker style="overflow:visible" id="marker13967" refX="0" refY="0" orient="auto"><path transform="matrix(-.4 0 0 -.4 -4 0)" style="fill-rule:evenodd;fill:context-stroke;stroke:context-stroke;stroke-width:1pt" d="m0 0 5-5-17.5 5L5 5z" id="path13965"/></marker><marker style="overflow:visible" id="Arrow2Send" refX="0" refY="0" orient="auto"><path transform="matrix(-.3 0 0 -.3 .69 0)" d="M8.719 4.034-2.207.016 8.719-4.002c-1.746 2.372-1.736 5.618 0 8.036z" style="stroke:context-stroke;fill-rule:evenodd;fill:context-stroke;stroke-width:.625;stroke-linejoin:round" id="path13480"/></marker><marker style="overflow:visible" id="Arrow1Send" refX="0" refY="0" orient="auto"><path transform="rotate(180 -.6 0)scale(.2)" style="fill-rule:evenodd;fill:context-stroke;stroke:context-stroke;stroke-width:1pt" d="m0 0 5-5-17.5 5L5 5z" id="path13462"/></marker><marker style="overflow:visible" id="Arrow1Mend" refX="0" refY="0" orient="auto"><path transform="matrix(-.4 0 0 -.4 -4 0)" style="fill-rule:evenodd;fill:context-stroke;stroke:context-stroke;stroke-width:1pt" d="m0 0 5-5-17.5 5L5 5z" id="path13456"/></marker><path id="rect51868" d="M195.165 513.894h378.932v116.034H195.165z"/><path id="rect49376" d="M349.883 554.744h129.679v65.05H349.883z"/><path id="rect47060" d="M231.486 511.982h138.147v63.692H231.486z"/><path id="rect31710" d="M535.39 418.719h33.673v46.671H535.39z"/><path id="rect3290" d="M244.207 424.044h318.986v126.718H244.207z"/></defs><style type="text/css" id="style2">.st0{fill:#000}</style><path style="fill:#a3be8c;fill-opacity:1;stroke:#000;stroke-width:6.57034;stroke-linecap:round;stroke-linejoin:round;stroke-miterlimit:4;stroke-dasharray:none;stroke-opacity:1" id="rect8303" d="M127.663 202.989h36.857V385.82h-36.857z"/><path style="fill:#a3be8c;fill-opacity:1;stroke:#000;stroke-width:6.57034;stroke-linecap:round;stroke-linejoin:round;stroke-miterlimit:4;stroke-dasharray:none;stroke-opacity:1" id="rect8303-8" d="M190.15 258.627h36.857v127.194H190.15z"/><path style="fill:#a3be8c;fill-opacity:1;stroke:#000;stroke-width:6.79085;stroke-linecap:round;stroke-linejoin:round;stroke-miterlimit:4;stroke-dasharray:none;stroke-opacity:1" id="rect8303-1" d="M252.747 243.159h36.636v153.434h-36.636z"/><path style="fill:#a3be8c;fill-opacity:1;stroke:#000;stroke-width:7.08301;stroke-linecap:round;stroke-linejoin:round;stroke-miterlimit:4;stroke-dasharray:none;stroke-opacity:1" id="rect8303-0" d="M315.38 288.478h36.344v115.024H315.38z"/><path style="fill:#a3be8c;fill-opacity:1;stroke:#000;stroke-width:6.57034;stroke-linecap:round;stroke-linejoin:round;stroke-miterlimit:4;stroke-dasharray:none;stroke-opacity:1" id="rect8303-3" d="M377.611 202.989h36.857V385.82h-36.857z"/><path style="fill:#a3be8c;fill-opacity:1;stroke:#000;stroke-width:6.57034;stroke-linecap:round;stroke-linejoin:round;stroke-miterlimit:4;stroke-dasharray:none;stroke-opacity:1" id="rect8303-04" d="M440.098 250.039h36.857V385.82h-36.857z"/><g id="g1256" transform="translate(-69.114 79.028)scale(1.52172)"><g id="g1246" style="fill:#3b5b82;fill-opacity:1" transform="translate(47.505 13.402)scale(.81516)"><path class="st0" d="M65.417 237.509c-28.796 0-52.142 23.346-52.142 52.149s23.346 52.149 52.142 52.149c28.804 0 52.149-23.346 52.149-52.149 0-28.802-23.345-52.149-52.149-52.149zm0 79.647c-15.176 0-27.49-12.298-27.49-27.498 0-15.191 12.314-27.49 27.49-27.49 15.2 0 27.498 12.299 27.498 27.49 0 15.2-12.298 27.498-27.498 27.498z" id="path1238" style="fill:#3b5b82;fill-opacity:1;stroke:#000;stroke-width:3.84;stroke-miterlimit:4;stroke-dasharray:none;stroke-opacity:1"/><path class="st0" d="M395.38 237.509c-28.796 0-52.15 23.346-52.15 52.149s23.354 52.149 52.15 52.149c28.804 0 52.149-23.346 52.149-52.149 0-28.802-23.345-52.149-52.149-52.149zm0 79.647c-15.192 0-27.498-12.298-27.498-27.498 0-15.191 12.306-27.49 27.498-27.49 15.184 0 27.498 12.299 27.498 27.49 0 15.2-12.314 27.498-27.498 27.498z" id="path1240" style="fill:#3b5b82;fill-opacity:1;stroke:#000;stroke-width:3.84;stroke-miterlimit:4;stroke-dasharray:none;stroke-opacity:1"/><path class="st0" d="M395.215 272.093c-9.404 0-17.03 7.64-17.03 17.03 0 9.404 7.626 17.029 17.03 17.029s17.014-7.625 17.014-17.03c0-9.388-7.61-17.03-17.014-17.03z" id="path1242" style="fill:#81a1c1;fill-opacity:1;stroke:#000;stroke-width:3.92562;stroke-miterlimit:4;stroke-dasharray:none;stroke-opacity:1"/><path class="st0" d="M65.22 272.093c-9.405 0-17.03 7.64-17.03 17.03 0 9.404 7.625 17.029 17.03 17.029 9.404 0 17.014-7.625 17.014-17.03 0-9.388-7.61-17.03-17.014-17.03z" id="path1244" style="fill:#81a1c1;fill-opacity:1;stroke:#000;stroke-width:3.92562;stroke-miterlimit:4;stroke-dasharray:none;stroke-opacity:1"/></g><path class="st0" d="M229.309 204.227h36.88l-.35-11.128-14.937-1.156c-.317-.055-.586-.321-.703-.7l-1.26-5.785a1.45 1.45 0 0 1 .117-1.085c.188-.315.493-.504.821-.504h14.203c-1.054-11.758-7.33-20.47-17.21-22.249-14.045-2.521-24.902 9.496-23.18 23.923.703 5.87 3.163 15.12 5.619 18.684zm27.798-32.41-3.967-.307s-1.823-2.808-3.393-4.994c1.57 0 5.532 1.877 7.36 5.302z" id="path1248" style="fill:#ebcb8b;fill-opacity:1;stroke:#000;stroke-width:3.43126;stroke-miterlimit:4;stroke-dasharray:none;stroke-opacity:1"/><path class="st0" d="M100.704 200.712c1.546 0 3.065.083 4.566.216l8.547-11.79v-26.98H47.5v67.862l7.11 3.987c6.429-19.319 24.659-33.295 46.094-33.295z" id="path1250" style="fill:#e10600;fill-opacity:1;stroke:#000;stroke-width:4.16415;stroke-miterlimit:4;stroke-dasharray:none;stroke-opacity:1"/><path class="st0" d="M367.73 200.743c-31.616-4.73-63.944-7.688-90.25-9.531-1.863 8.253-7.93 15.667-15.604 15.667h-41.644V152.13c-50.4 5.494-82.378 31.96-100.984 52.27 17.614 7.3 30.045 24.672 30.045 44.892 0 4.54-.643 8.928-1.812 13.112h174.817a48.6 48.6 0 0 1-1.812-13.112c-.002-26.337 21.071-47.837 47.244-48.549z" id="path1252" style="display:inline;fill:#e10600;fill-opacity:1;stroke:#000;stroke-width:4.16415;stroke-miterlimit:4;stroke-dasharray:none;stroke-opacity:1"/><path class="st0" d="M429.983 246.978v-7.707l14.657-7.706s2.709-8.98 2.709-15.147c-17.258-5.698-40.316-9.03-61.598-12.756 18.593 6.829 31.895 24.704 31.895 45.63 0 4.54-.642 8.928-1.818 13.112h48.086v-15.426z" id="path1254" style="fill:#e10600;fill-opacity:1;stroke:#000;stroke-width:4.16415;stroke-miterlimit:4;stroke-dasharray:none;stroke-opacity:1"/></g><path style="display:inline;fill:none;stroke:#000001;stroke-width:24.32;stroke-linecap:round;stroke-linejoin:round;stroke-miterlimit:4;stroke-dasharray:none;stroke-opacity:1;marker-end:url(#marker14025)" d="m40.553 241.676 103.412-114.957 63.042 78.477 70.025-13.852 55.592 49.588 62.958-103.61 59.466 64.026 74.074-41.324" id="path16026"/><path style="display:inline;fill:none;stroke:#a3be8c;stroke-width:13.0445;stroke-linecap:round;stroke-linejoin:round;stroke-miterlimit:4;stroke-dasharray:none;stroke-opacity:1;marker-end:url(#Arrow2Send)" d="m40.553 241.676 103.412-114.957 63.042 78.477 70.025-13.852 55.592 49.588 62.958-103.61 59.466 64.026 74.074-41.324" id="path15919"/><path style="fill:#a3be8c;fill-opacity:1;stroke:#a3be8c;stroke-width:.615658px;stroke-linecap:round;stroke-linejoin:round;stroke-opacity:1" d="m545.162 152.157-61.253 6.36 18.852 15.466 2.716 24.751z" id="path19898"/></svg>
