<svg width="1000mm" height="1000mm" viewBox="0 0 1000 1000" xmlns="http://www.w3.org/2000/svg">
  <path transform="matrix(1.3435 0 0 1.3511 .628 404.026)" d="M10.033 10.033h664.93v290.41H10.033z" fill="#81a1c1" stroke="#000" stroke-linecap="round" stroke-linejoin="round" stroke-width="16.986"/>
  <g fill="#3b5b82" stroke="#000" stroke-linecap="round" stroke-linejoin="round" stroke-width=".846">
    <g stroke-width="12.697">
      <path transform="matrix(1.3435 0 0 1.3511 .628 633.615)" d="M47.584 47.584h54.832v44.832H47.584zm89.795-.122h415.24v45.597h-415.24zm450.121.122h54.287v44.287H587.5z"/>
      <path transform="matrix(1.3435 0 0 1.3511 .628 512.01)" d="M47.584 47.584h54.832v44.832H47.584zm90.273 9.916h54.287v44.287h-54.287zm89.643-9.643h54.287v44.287H227.5zm90 9.643h54.287v44.287H317.5zm90-9.643h54.287v44.287H407.5zm90 9.643h54.287v44.287H497.5z"/>
      <path transform="matrix(1.3435 0 0 1.3511 .628 404.026)" d="M47.584 47.584h54.832v44.832H47.584zm90.273 9.916h54.287v44.287h-54.287zm89.643-9.643h54.287v44.287H227.5zm90 9.643h54.287v44.287H317.5zm90-9.643h54.287v44.287H407.5zm90 9.643h54.287v44.287H497.5z"/>
    </g>
    <path transform="matrix(1.3435 0 0 1.3511 .628 404.026)" d="M587.68 47.685h47.802v104.63H587.68z" stroke-width="13.011"/>
  </g>
  <g fill="none" stroke-linecap="round" stroke-linejoin="round" stroke-width="1.516">
    <g transform="matrix(.44333 0 0 .44206 634.026 149.44)">
      <circle cx="493.91" cy="383.41" r="241.07" stroke="#000" stroke-width="118.71"/>
      <circle cx="493.91" cy="383.41" r="241.07" stroke="#a3be8c" stroke-width="49.462"/>
    </g>
    <path transform="matrix(.49638 0 0 .49497 641.514 91.818)" d="M669.2 229.14S437.96 392.35 438.72 557.16c.635-11.47-55.805-156.04-97.496-169.01" stroke="#000" stroke-width="106.02"/>
    <path transform="matrix(.49638 0 0 .49497 641.514 91.818)" d="M669.2 229.14S437.96 392.35 438.72 557.16c.635-11.47-55.805-156.04-97.496-169.01" stroke="#a3be8c" stroke-width="53.01"/>
  </g>
  <text transform="scale(.9903 1.0098)" x="19.02" y="371.841" fill="#ebcb8b" font-family="sans-serif" font-size="180.12" font-weight="700" letter-spacing="23.174" stroke="#000" stroke-linecap="round" stroke-linejoin="round" stroke-width="39.414" style="line-height:1;paint-order:stroke fill markers" xml:space="preserve"><tspan x="19.02" y="371.841">TYPEM</tspan></text>
</svg>
