<svg xmlns="http://www.w3.org/2000/svg" xml:space="preserve" width="656.347" height="691.489" viewBox="0 0 173.659 182.957"><g style="display:inline"><path d="M29.805 197.34a83.99 47.454 0 0 0 81.508 36.25 83.99 47.454 0 0 0 81.508-36.25z" style="display:inline;fill:#a3be8c;fill-opacity:1;stroke:#000;stroke-width:3;stroke-linecap:round;stroke-linejoin:miter;stroke-dasharray:none;stroke-opacity:1" transform="translate(-23.498 -52.134)"/><g style="display:inline"><path d="m194.144 196.19-46.787-.772-22.122-53.795 23.294-48.295Z" style="display:inline;fill:#81a1c1;fill-opacity:1;stroke:none;stroke-width:1;stroke-linecap:round;stroke-linejoin:miter;stroke-dasharray:none;stroke-opacity:1" transform="translate(-23.498 -52.134)"/><path d="m125.454 142.674 21.485 52.391 10.152-.283-10.353-57.648-13.538-12.46z" style="display:inline;fill:#5e81ac;fill-opacity:1;stroke:none;stroke-width:1;stroke-linecap:round;stroke-linejoin:miter;stroke-dasharray:none;stroke-opacity:1" transform="translate(-23.498 -52.134)"/><path d="m161.633 126.005-13.938 16.286-14.499-17.043 14.7-33.272Z" style="display:inline;fill:#eceff4;fill-opacity:1;stroke:none;stroke-width:1;stroke-linecap:round;stroke-linejoin:miter;stroke-dasharray:none;stroke-opacity:1" transform="translate(-23.498 -52.134)"/><path d="m125.63 141.134 22.175-50.374 46.851 106.222-48.004-1.254m1.127-53.314 14.46-17.537m-29.884.701 14.917 16.715 10.062 54.086" style="display:inline;fill:none;stroke:#000;stroke-width:4.99999;stroke-linecap:round;stroke-linejoin:round" transform="translate(-23.498 -52.134)"/></g><g style="display:inline"><path d="m115.905 214.247-7.12-52.514 39.47 32.765z" style="display:inline;fill:#3b5b82;fill-opacity:1;stroke:none;stroke-width:1;stroke-linecap:round;stroke-linejoin:miter;stroke-dasharray:none;stroke-opacity:1" transform="translate(-23.498 -52.134)"/><path d="m145.13 193.675-33.696-26.38-27.758-19.34 1.86-44.209 15.964-15.21" style="display:inline;fill:#5e81ac;fill-opacity:1;stroke:none;stroke-width:1;stroke-linecap:round;stroke-linejoin:miter;stroke-dasharray:none;stroke-opacity:1" transform="translate(-23.498 -52.134)"/><path d="m86.455 107.077 14.966-17.41-14.266-32.045-1.991 49.794" style="display:inline;fill:#d8dee9;fill-opacity:1;stroke:none;stroke-width:1;stroke-linecap:round;stroke-linejoin:miter;stroke-dasharray:none;stroke-opacity:1" transform="translate(-23.498 -52.134)"/><path d="m65.704 107.795 21.129-1.116-.016-46.584" style="display:inline;fill:#eceff4;fill-opacity:1;stroke:none;stroke-width:1;stroke-linecap:round;stroke-linejoin:miter;stroke-dasharray:none;stroke-opacity:1" transform="translate(-23.498 -52.134)"/><path d="m117.383 213.795-5.948-46.666L86.9 147.884l-.077-41.225-21.627.086L47.71 144.36l-21.432 53.084z" style="display:inline;fill:#81a1c1;fill-opacity:1;stroke:none;stroke-width:1;stroke-linecap:round;stroke-linejoin:miter;stroke-dasharray:none;stroke-opacity:1" transform="translate(-23.498 -52.134)"/><path d="m48.478 142.805 38.7-88.171 60.444 141.37-29.593 17.7-50.826-9.047m44.86-37.467 5.543 45.381M87.288 58.652l-.53 88.476 59.909 47.645" style="display:inline;fill:none;stroke:#000;stroke-width:4.99999;stroke-linecap:round;stroke-linejoin:round" transform="translate(-23.498 -52.134)"/></g><g style="display:inline;fill:#ebcb8b;fill-opacity:1;stroke:#000;stroke-width:1.63454;stroke-dasharray:none;stroke-opacity:1" transform="matrix(1.14522 0 0 1.31577 -29.495 -100.343)"><rect width="33.327" height="9.737" x="26.572" y="185.338" ry="2.142" style="display:inline;fill:#ebcb8b;fill-opacity:1;stroke:#000;stroke-width:1.63454;stroke-linecap:round;stroke-linejoin:round;stroke-dasharray:none;stroke-opacity:1"/><rect width="33.327" height="9.737" x="26.572" y="173.197" ry="2.142" style="display:inline;fill:#ebcb8b;fill-opacity:1;stroke:#000;stroke-width:1.63454;stroke-linecap:round;stroke-linejoin:round;stroke-dasharray:none;stroke-opacity:1"/><rect width="33.327" height="9.737" x="26.572" y="161.057" ry="2.142" style="display:inline;fill:#ebcb8b;fill-opacity:1;stroke:#000;stroke-width:1.63454;stroke-linecap:round;stroke-linejoin:round;stroke-dasharray:none;stroke-opacity:1"/><rect width="33.327" height="9.737" x="26.572" y="148.916" ry="2.142" style="display:inline;fill:#ebcb8b;fill-opacity:1;stroke:#000;stroke-width:1.63454;stroke-linecap:round;stroke-linejoin:round;stroke-dasharray:none;stroke-opacity:1"/></g></g></svg>