<svg width="1000mm" height="1000mm" viewBox="0 0 1000 1000" xml:space="preserve" xmlns="http://www.w3.org/2000/svg">
  <path d="M59.472 793.662a459.056 259.365 0 0 0 445.49 198.133 459.056 259.365 0 0 0 445.49-198.133z" fill="#a3be8c" stroke="#000" stroke-linecap="round" stroke-width="16.397"/>
  <path d="m957.662 787.376-255.72-4.22-120.91-294.016 127.316-263.966z" fill="#81a1c1"/>
  <path d="m582.23 494.857 117.428 286.354 55.492-1.547-56.585-315.08-73.993-68.102z" fill="#5e81ac"/>
  <path d="m779.975 403.8-76.18 89.013-79.245-93.15 80.344-181.852z" fill="#eceff4"/>
  <path d="m583.213 486.44 121.2-275.324 256.069 580.556-262.37-6.854m6.159-291.393 79.032-95.85m-163.334 3.831 81.536 91.358L756.5 788.376" fill="none" stroke="#000" stroke-linecap="round" stroke-linejoin="round" stroke-width="27.328"/>
  <path d="m530.033 886.085-38.91-287.02 215.728 179.08z" fill="#3b5b82"/>
  <path d="M689.793 773.603 505.623 629.42 353.916 523.721l10.166-241.634 87.253-83.132" fill="#5e81ac"/>
  <path d="m369.098 300.336 81.799-95.15-77.973-175.15-10.887 272.153" fill="#d8dee9"/>
  <path d="m255.682 304.217 115.482-6.1-.082-254.604" fill="#eceff4"/>
  <path d="m538.122 883.57-32.51-255.052-134.098-105.185-.42-225.32-118.205.465-95.583 205.594L40.18 794.208z" fill="#81a1c1"/>
  <path d="M161.531 495.568 373.051 13.66l330.362 772.672-161.744 96.741-277.794-49.442m245.187-204.78 30.295 248.04m-165.7-841.264L370.76 519.2l327.433 260.408" fill="none" stroke="#000" stroke-linecap="round" stroke-linejoin="round" stroke-width="27.328"/>
  <g transform="matrix(6.2592 0 0 7.1916 -136.207 -548.411)" fill="#ebcb8b" stroke="#000" stroke-linecap="round" stroke-linejoin="round" stroke-width="1.635">
    <rect x="26.572" y="185.34" width="33.327" height="9.736" ry="2.142"/>
    <rect x="26.572" y="173.2" width="33.327" height="9.736" ry="2.142"/>
    <rect x="26.572" y="161.06" width="33.327" height="9.736" ry="2.142"/>
    <rect x="26.572" y="148.92" width="33.327" height="9.736" ry="2.142"/>
  </g>
</svg>
